<svg xmlns="http://www.w3.org/2000/svg" viewBox="0 0 1200 630" width="1200" height="630" role="img">
<rect width="1200" height="630" fill="#14161b"/>
<rect x="30" y="30" width="1140" height="570" fill="none" stroke="#8a5510" stroke-opacity="0.35" stroke-width="2"/>
<rect x="70" y="70" width="22" height="34" fill="#8a5510" fill-opacity="0.20" stroke="#8a5510" stroke-opacity="0.55" stroke-width="1.5"/>
<rect x="102" y="70" width="20" height="34" fill="#8a5510" fill-opacity="0.33" stroke="#8a5510" stroke-opacity="0.55" stroke-width="1.5"/>
<rect x="132" y="70" width="23" height="34" fill="#8a5510" fill-opacity="0.20" stroke="#8a5510" stroke-opacity="0.55" stroke-width="1.5"/>
<rect x="165" y="70" width="17" height="34" fill="#8a5510" fill-opacity="0.58" stroke="#8a5510" stroke-opacity="0.55" stroke-width="1.5"/>
<rect x="192" y="70" width="40" height="34" fill="#8a5510" fill-opacity="0.43" stroke="#8a5510" stroke-opacity="0.55" stroke-width="1.5"/>
<rect x="242" y="70" width="189" height="56" fill="#8a5510" fill-opacity="0.37" stroke="#8a5510" stroke-opacity="0.55" stroke-width="1.5"/>
<rect x="441" y="70" width="37" height="34" fill="#8a5510" fill-opacity="0.16" stroke="#8a5510" stroke-opacity="0.55" stroke-width="1.5"/>
<rect x="488" y="70" width="151" height="56" fill="#8a5510" fill-opacity="0.36" stroke="#8a5510" stroke-opacity="0.55" stroke-width="1.5"/>
<rect x="649" y="70" width="28" height="34" fill="#8a5510" fill-opacity="0.27" stroke="#8a5510" stroke-opacity="0.55" stroke-width="1.5"/>
<rect x="687" y="70" width="183" height="56" fill="#8a5510" fill-opacity="0.41" stroke="#8a5510" stroke-opacity="0.55" stroke-width="1.5"/>
<rect x="880" y="70" width="37" height="34" fill="#8a5510" fill-opacity="0.41" stroke="#8a5510" stroke-opacity="0.55" stroke-width="1.5"/>
<rect x="927" y="70" width="36" height="34" fill="#8a5510" fill-opacity="0.46" stroke="#8a5510" stroke-opacity="0.55" stroke-width="1.5"/>
<rect x="973" y="70" width="16" height="34" fill="#8a5510" fill-opacity="0.25" stroke="#8a5510" stroke-opacity="0.55" stroke-width="1.5"/>
<rect x="999" y="70" width="28" height="34" fill="#8a5510" fill-opacity="0.51" stroke="#8a5510" stroke-opacity="0.55" stroke-width="1.5"/>
<rect x="1037" y="70" width="36" height="34" fill="#8a5510" fill-opacity="0.14" stroke="#8a5510" stroke-opacity="0.55" stroke-width="1.5"/>
<rect x="1083" y="70" width="28" height="34" fill="#8a5510" fill-opacity="0.20" stroke="#8a5510" stroke-opacity="0.55" stroke-width="1.5"/>
<rect x="70" y="140" width="16" height="34" fill="#8a5510" fill-opacity="0.29" stroke="#8a5510" stroke-opacity="0.55" stroke-width="1.5"/>
<rect x="96" y="140" width="24" height="34" fill="#8a5510" fill-opacity="0.23" stroke="#8a5510" stroke-opacity="0.55" stroke-width="1.5"/>
<rect x="130" y="140" width="30" height="34" fill="#8a5510" fill-opacity="0.15" stroke="#8a5510" stroke-opacity="0.55" stroke-width="1.5"/>
<rect x="170" y="140" width="23" height="34" fill="#8a5510" fill-opacity="0.48" stroke="#8a5510" stroke-opacity="0.55" stroke-width="1.5"/>
<rect x="203" y="140" width="29" height="34" fill="#8a5510" fill-opacity="0.38" stroke="#8a5510" stroke-opacity="0.55" stroke-width="1.5"/>
<rect x="242" y="140" width="39" height="34" fill="#8a5510" fill-opacity="0.27" stroke="#8a5510" stroke-opacity="0.55" stroke-width="1.5"/>
<rect x="291" y="140" width="16" height="34" fill="#8a5510" fill-opacity="0.21" stroke="#8a5510" stroke-opacity="0.55" stroke-width="1.5"/>
<rect x="317" y="140" width="38" height="34" fill="#8a5510" fill-opacity="0.34" stroke="#8a5510" stroke-opacity="0.55" stroke-width="1.5"/>
<rect x="365" y="140" width="157" height="56" fill="#8a5510" fill-opacity="0.55" stroke="#8a5510" stroke-opacity="0.55" stroke-width="1.5"/>
<rect x="532" y="140" width="24" height="34" fill="#8a5510" fill-opacity="0.36" stroke="#8a5510" stroke-opacity="0.55" stroke-width="1.5"/>
<rect x="566" y="140" width="32" height="34" fill="#8a5510" fill-opacity="0.16" stroke="#8a5510" stroke-opacity="0.55" stroke-width="1.5"/>
<rect x="608" y="140" width="33" height="34" fill="#8a5510" fill-opacity="0.43" stroke="#8a5510" stroke-opacity="0.55" stroke-width="1.5"/>
<rect x="651" y="140" width="132" height="56" fill="#8a5510" fill-opacity="0.51" stroke="#8a5510" stroke-opacity="0.55" stroke-width="1.5"/>
<rect x="793" y="140" width="15" height="34" fill="#8a5510" fill-opacity="0.34" stroke="#8a5510" stroke-opacity="0.55" stroke-width="1.5"/>
<rect x="818" y="140" width="187" height="56" fill="#8a5510" fill-opacity="0.13" stroke="#8a5510" stroke-opacity="0.55" stroke-width="1.5"/>
<rect x="1015" y="140" width="16" height="34" fill="#8a5510" fill-opacity="0.16" stroke="#8a5510" stroke-opacity="0.55" stroke-width="1.5"/>
<rect x="1041" y="140" width="39" height="34" fill="#8a5510" fill-opacity="0.28" stroke="#8a5510" stroke-opacity="0.55" stroke-width="1.5"/>
<rect x="1090" y="140" width="20" height="34" fill="#8a5510" fill-opacity="0.53" stroke="#8a5510" stroke-opacity="0.55" stroke-width="1.5"/>
<rect x="70" y="210" width="27" height="34" fill="#8a5510" fill-opacity="0.43" stroke="#8a5510" stroke-opacity="0.55" stroke-width="1.5"/>
<rect x="107" y="210" width="149" height="56" fill="#8a5510" fill-opacity="0.36" stroke="#8a5510" stroke-opacity="0.55" stroke-width="1.5"/>
<rect x="266" y="210" width="40" height="34" fill="#8a5510" fill-opacity="0.57" stroke="#8a5510" stroke-opacity="0.55" stroke-width="1.5"/>
<rect x="316" y="210" width="23" height="34" fill="#8a5510" fill-opacity="0.58" stroke="#8a5510" stroke-opacity="0.55" stroke-width="1.5"/>
<rect x="349" y="210" width="22" height="34" fill="#8a5510" fill-opacity="0.27" stroke="#8a5510" stroke-opacity="0.55" stroke-width="1.5"/>
<rect x="381" y="210" width="21" height="34" fill="#8a5510" fill-opacity="0.14" stroke="#8a5510" stroke-opacity="0.55" stroke-width="1.5"/>
<rect x="412" y="210" width="34" height="34" fill="#8a5510" fill-opacity="0.56" stroke="#8a5510" stroke-opacity="0.55" stroke-width="1.5"/>
<rect x="456" y="210" width="115" height="56" fill="#8a5510" fill-opacity="0.51" stroke="#8a5510" stroke-opacity="0.55" stroke-width="1.5"/>
<rect x="581" y="210" width="16" height="34" fill="#8a5510" fill-opacity="0.10" stroke="#8a5510" stroke-opacity="0.55" stroke-width="1.5"/>
<rect x="607" y="210" width="33" height="34" fill="#8a5510" fill-opacity="0.59" stroke="#8a5510" stroke-opacity="0.55" stroke-width="1.5"/>
<rect x="650" y="210" width="33" height="34" fill="#8a5510" fill-opacity="0.14" stroke="#8a5510" stroke-opacity="0.55" stroke-width="1.5"/>
<rect x="693" y="210" width="39" height="34" fill="#8a5510" fill-opacity="0.50" stroke="#8a5510" stroke-opacity="0.55" stroke-width="1.5"/>
<rect x="742" y="210" width="153" height="56" fill="#8a5510" fill-opacity="0.25" stroke="#8a5510" stroke-opacity="0.55" stroke-width="1.5"/>
<rect x="905" y="210" width="20" height="34" fill="#8a5510" fill-opacity="0.22" stroke="#8a5510" stroke-opacity="0.55" stroke-width="1.5"/>
<rect x="935" y="210" width="25" height="34" fill="#8a5510" fill-opacity="0.17" stroke="#8a5510" stroke-opacity="0.55" stroke-width="1.5"/>
<rect x="970" y="210" width="39" height="34" fill="#8a5510" fill-opacity="0.37" stroke="#8a5510" stroke-opacity="0.55" stroke-width="1.5"/>
<rect x="70" y="280" width="115" height="56" fill="#8a5510" fill-opacity="0.29" stroke="#8a5510" stroke-opacity="0.55" stroke-width="1.5"/>
<rect x="195" y="280" width="26" height="34" fill="#8a5510" fill-opacity="0.45" stroke="#8a5510" stroke-opacity="0.55" stroke-width="1.5"/>
<rect x="231" y="280" width="18" height="34" fill="#8a5510" fill-opacity="0.25" stroke="#8a5510" stroke-opacity="0.55" stroke-width="1.5"/>
<rect x="259" y="280" width="37" height="34" fill="#8a5510" fill-opacity="0.51" stroke="#8a5510" stroke-opacity="0.55" stroke-width="1.5"/>
<rect x="306" y="280" width="25" height="34" fill="#8a5510" fill-opacity="0.50" stroke="#8a5510" stroke-opacity="0.55" stroke-width="1.5"/>
<rect x="341" y="280" width="28" height="34" fill="#8a5510" fill-opacity="0.55" stroke="#8a5510" stroke-opacity="0.55" stroke-width="1.5"/>
<rect x="379" y="280" width="19" height="34" fill="#8a5510" fill-opacity="0.29" stroke="#8a5510" stroke-opacity="0.55" stroke-width="1.5"/>
<rect x="408" y="280" width="35" height="34" fill="#8a5510" fill-opacity="0.52" stroke="#8a5510" stroke-opacity="0.55" stroke-width="1.5"/>
<rect x="453" y="280" width="180" height="56" fill="#8a5510" fill-opacity="0.39" stroke="#8a5510" stroke-opacity="0.55" stroke-width="1.5"/>
<rect x="643" y="280" width="132" height="56" fill="#8a5510" fill-opacity="0.58" stroke="#8a5510" stroke-opacity="0.55" stroke-width="1.5"/>
<rect x="785" y="280" width="38" height="34" fill="#8a5510" fill-opacity="0.32" stroke="#8a5510" stroke-opacity="0.55" stroke-width="1.5"/>
<rect x="833" y="280" width="34" height="34" fill="#8a5510" fill-opacity="0.54" stroke="#8a5510" stroke-opacity="0.55" stroke-width="1.5"/>
<rect x="877" y="280" width="144" height="56" fill="#8a5510" fill-opacity="0.14" stroke="#8a5510" stroke-opacity="0.55" stroke-width="1.5"/>
<rect x="1031" y="280" width="38" height="34" fill="#8a5510" fill-opacity="0.30" stroke="#8a5510" stroke-opacity="0.55" stroke-width="1.5"/>
<rect x="1079" y="280" width="26" height="34" fill="#8a5510" fill-opacity="0.44" stroke="#8a5510" stroke-opacity="0.55" stroke-width="1.5"/>
<rect x="70" y="350" width="24" height="34" fill="#8a5510" fill-opacity="0.37" stroke="#8a5510" stroke-opacity="0.55" stroke-width="1.5"/>
<rect x="104" y="350" width="18" height="34" fill="#8a5510" fill-opacity="0.40" stroke="#8a5510" stroke-opacity="0.55" stroke-width="1.5"/>
<rect x="132" y="350" width="147" height="56" fill="#8a5510" fill-opacity="0.35" stroke="#8a5510" stroke-opacity="0.55" stroke-width="1.5"/>
<rect x="289" y="350" width="25" height="34" fill="#8a5510" fill-opacity="0.12" stroke="#8a5510" stroke-opacity="0.55" stroke-width="1.5"/>
<rect x="324" y="350" width="31" height="34" fill="#8a5510" fill-opacity="0.58" stroke="#8a5510" stroke-opacity="0.55" stroke-width="1.5"/>
<rect x="365" y="350" width="25" height="34" fill="#8a5510" fill-opacity="0.24" stroke="#8a5510" stroke-opacity="0.55" stroke-width="1.5"/>
<rect x="400" y="350" width="18" height="34" fill="#8a5510" fill-opacity="0.49" stroke="#8a5510" stroke-opacity="0.55" stroke-width="1.5"/>
<rect x="428" y="350" width="27" height="34" fill="#8a5510" fill-opacity="0.37" stroke="#8a5510" stroke-opacity="0.55" stroke-width="1.5"/>
<rect x="465" y="350" width="15" height="34" fill="#8a5510" fill-opacity="0.47" stroke="#8a5510" stroke-opacity="0.55" stroke-width="1.5"/>
<rect x="490" y="350" width="29" height="34" fill="#8a5510" fill-opacity="0.13" stroke="#8a5510" stroke-opacity="0.55" stroke-width="1.5"/>
<rect x="529" y="350" width="159" height="56" fill="#8a5510" fill-opacity="0.23" stroke="#8a5510" stroke-opacity="0.55" stroke-width="1.5"/>
<rect x="698" y="350" width="136" height="56" fill="#8a5510" fill-opacity="0.41" stroke="#8a5510" stroke-opacity="0.55" stroke-width="1.5"/>
<rect x="844" y="350" width="19" height="34" fill="#8a5510" fill-opacity="0.12" stroke="#8a5510" stroke-opacity="0.55" stroke-width="1.5"/>
<rect x="873" y="350" width="31" height="34" fill="#8a5510" fill-opacity="0.22" stroke="#8a5510" stroke-opacity="0.55" stroke-width="1.5"/>
<rect x="914" y="350" width="27" height="34" fill="#8a5510" fill-opacity="0.50" stroke="#8a5510" stroke-opacity="0.55" stroke-width="1.5"/>
<rect x="951" y="350" width="26" height="34" fill="#8a5510" fill-opacity="0.57" stroke="#8a5510" stroke-opacity="0.55" stroke-width="1.5"/>
<rect x="987" y="350" width="29" height="34" fill="#8a5510" fill-opacity="0.27" stroke="#8a5510" stroke-opacity="0.55" stroke-width="1.5"/>
<rect x="1026" y="350" width="28" height="34" fill="#8a5510" fill-opacity="0.29" stroke="#8a5510" stroke-opacity="0.55" stroke-width="1.5"/>
<rect x="1064" y="350" width="19" height="34" fill="#8a5510" fill-opacity="0.31" stroke="#8a5510" stroke-opacity="0.55" stroke-width="1.5"/>
<rect x="1093" y="350" width="29" height="34" fill="#8a5510" fill-opacity="0.15" stroke="#8a5510" stroke-opacity="0.55" stroke-width="1.5"/>
<rect x="70" y="420" width="165" height="56" fill="#8a5510" fill-opacity="0.45" stroke="#8a5510" stroke-opacity="0.55" stroke-width="1.5"/>
<rect x="245" y="420" width="34" height="34" fill="#8a5510" fill-opacity="0.42" stroke="#8a5510" stroke-opacity="0.55" stroke-width="1.5"/>
<rect x="289" y="420" width="31" height="34" fill="#8a5510" fill-opacity="0.21" stroke="#8a5510" stroke-opacity="0.55" stroke-width="1.5"/>
<rect x="330" y="420" width="29" height="34" fill="#8a5510" fill-opacity="0.38" stroke="#8a5510" stroke-opacity="0.55" stroke-width="1.5"/>
<rect x="369" y="420" width="30" height="34" fill="#8a5510" fill-opacity="0.42" stroke="#8a5510" stroke-opacity="0.55" stroke-width="1.5"/>
<rect x="409" y="420" width="25" height="34" fill="#8a5510" fill-opacity="0.28" stroke="#8a5510" stroke-opacity="0.55" stroke-width="1.5"/>
<rect x="444" y="420" width="33" height="34" fill="#8a5510" fill-opacity="0.17" stroke="#8a5510" stroke-opacity="0.55" stroke-width="1.5"/>
<rect x="487" y="420" width="38" height="34" fill="#8a5510" fill-opacity="0.11" stroke="#8a5510" stroke-opacity="0.55" stroke-width="1.5"/>
<rect x="535" y="420" width="26" height="34" fill="#8a5510" fill-opacity="0.22" stroke="#8a5510" stroke-opacity="0.55" stroke-width="1.5"/>
<rect x="571" y="420" width="23" height="34" fill="#8a5510" fill-opacity="0.60" stroke="#8a5510" stroke-opacity="0.55" stroke-width="1.5"/>
<rect x="604" y="420" width="23" height="34" fill="#8a5510" fill-opacity="0.36" stroke="#8a5510" stroke-opacity="0.55" stroke-width="1.5"/>
<rect x="637" y="420" width="31" height="34" fill="#8a5510" fill-opacity="0.37" stroke="#8a5510" stroke-opacity="0.55" stroke-width="1.5"/>
<rect x="678" y="420" width="32" height="34" fill="#8a5510" fill-opacity="0.10" stroke="#8a5510" stroke-opacity="0.55" stroke-width="1.5"/>
<rect x="720" y="420" width="28" height="34" fill="#8a5510" fill-opacity="0.55" stroke="#8a5510" stroke-opacity="0.55" stroke-width="1.5"/>
<rect x="758" y="420" width="23" height="34" fill="#8a5510" fill-opacity="0.58" stroke="#8a5510" stroke-opacity="0.55" stroke-width="1.5"/>
<rect x="791" y="420" width="16" height="34" fill="#8a5510" fill-opacity="0.39" stroke="#8a5510" stroke-opacity="0.55" stroke-width="1.5"/>
<rect x="817" y="420" width="28" height="34" fill="#8a5510" fill-opacity="0.37" stroke="#8a5510" stroke-opacity="0.55" stroke-width="1.5"/>
<rect x="855" y="420" width="30" height="34" fill="#8a5510" fill-opacity="0.43" stroke="#8a5510" stroke-opacity="0.55" stroke-width="1.5"/>
<rect x="895" y="420" width="30" height="34" fill="#8a5510" fill-opacity="0.27" stroke="#8a5510" stroke-opacity="0.55" stroke-width="1.5"/>
<rect x="935" y="420" width="20" height="34" fill="#8a5510" fill-opacity="0.58" stroke="#8a5510" stroke-opacity="0.55" stroke-width="1.5"/>
<rect x="965" y="420" width="21" height="34" fill="#8a5510" fill-opacity="0.23" stroke="#8a5510" stroke-opacity="0.55" stroke-width="1.5"/>
<rect x="996" y="420" width="16" height="34" fill="#8a5510" fill-opacity="0.34" stroke="#8a5510" stroke-opacity="0.55" stroke-width="1.5"/>
<rect x="1022" y="420" width="27" height="34" fill="#8a5510" fill-opacity="0.41" stroke="#8a5510" stroke-opacity="0.55" stroke-width="1.5"/>
<rect x="70" y="490" width="24" height="34" fill="#8a5510" fill-opacity="0.24" stroke="#8a5510" stroke-opacity="0.55" stroke-width="1.5"/>
<rect x="104" y="490" width="32" height="34" fill="#8a5510" fill-opacity="0.13" stroke="#8a5510" stroke-opacity="0.55" stroke-width="1.5"/>
<rect x="146" y="490" width="31" height="34" fill="#8a5510" fill-opacity="0.24" stroke="#8a5510" stroke-opacity="0.55" stroke-width="1.5"/>
<rect x="187" y="490" width="38" height="34" fill="#8a5510" fill-opacity="0.37" stroke="#8a5510" stroke-opacity="0.55" stroke-width="1.5"/>
<rect x="235" y="490" width="38" height="34" fill="#8a5510" fill-opacity="0.41" stroke="#8a5510" stroke-opacity="0.55" stroke-width="1.5"/>
<rect x="283" y="490" width="30" height="34" fill="#8a5510" fill-opacity="0.23" stroke="#8a5510" stroke-opacity="0.55" stroke-width="1.5"/>
<rect x="323" y="490" width="187" height="56" fill="#8a5510" fill-opacity="0.38" stroke="#8a5510" stroke-opacity="0.55" stroke-width="1.5"/>
<rect x="520" y="490" width="156" height="56" fill="#8a5510" fill-opacity="0.22" stroke="#8a5510" stroke-opacity="0.55" stroke-width="1.5"/>
<rect x="686" y="490" width="27" height="34" fill="#8a5510" fill-opacity="0.29" stroke="#8a5510" stroke-opacity="0.55" stroke-width="1.5"/>
<rect x="723" y="490" width="26" height="34" fill="#8a5510" fill-opacity="0.23" stroke="#8a5510" stroke-opacity="0.55" stroke-width="1.5"/>
<rect x="759" y="490" width="113" height="56" fill="#8a5510" fill-opacity="0.43" stroke="#8a5510" stroke-opacity="0.55" stroke-width="1.5"/>
<rect x="882" y="490" width="26" height="34" fill="#8a5510" fill-opacity="0.32" stroke="#8a5510" stroke-opacity="0.55" stroke-width="1.5"/>
<rect x="918" y="490" width="129" height="56" fill="#8a5510" fill-opacity="0.18" stroke="#8a5510" stroke-opacity="0.55" stroke-width="1.5"/>
<rect x="1057" y="490" width="38" height="34" fill="#8a5510" fill-opacity="0.42" stroke="#8a5510" stroke-opacity="0.55" stroke-width="1.5"/>
<line x1="40" y1="75" x2="1160" y2="75" stroke="#8a5510" stroke-opacity="0.12" stroke-width="1"/>
<line x1="40" y1="395" x2="1160" y2="395" stroke="#8a5510" stroke-opacity="0.12" stroke-width="1"/>
<line x1="40" y1="172" x2="1160" y2="172" stroke="#8a5510" stroke-opacity="0.12" stroke-width="1"/>
<line x1="40" y1="512" x2="1160" y2="512" stroke="#8a5510" stroke-opacity="0.12" stroke-width="1"/>
<line x1="40" y1="270" x2="1160" y2="270" stroke="#8a5510" stroke-opacity="0.12" stroke-width="1"/>
<line x1="40" y1="376" x2="1160" y2="376" stroke="#8a5510" stroke-opacity="0.12" stroke-width="1"/>
</svg>